<?xml version="1.0" standalone="no"?>
<!DOCTYPE svg PUBLIC "-//W3C//DTD SVG 20010904//EN"
 "http://www.w3.org/TR/2001/REC-SVG-20010904/DTD/svg10.dtd">
<svg version="1.0" xmlns="http://www.w3.org/2000/svg"
 width="25.000000pt" height="25.000000pt" viewBox="0 0 25.000000 25.000000"
 preserveAspectRatio="xMidYMid meet">
<metadata>
Created by potrace 1.16, written by Peter Selinger 2001-2019
</metadata>
<g transform="translate(0.000000,25.000000) scale(0.002500,-0.002500)"
fill="#000000" stroke="none">
<path d="M0 6460 l0 -3540 33 0 c17 0 126 7 242 15 116 8 314 21 440 30 127 8
291 20 365 26 74 5 360 25 635 44 275 19 514 37 532 40 26 5 33 12 38 38 12
56 35 87 83 118 27 17 55 45 66 67 88 170 300 322 657 467 32 13 91 46 131 74
94 67 240 172 301 218 27 19 72 45 101 57 54 22 215 125 216 139 0 4 -5 7 -11
7 -6 0 -30 20 -55 44 -24 25 -44 49 -44 55 0 6 -7 11 -15 11 -9 0 -21 11 -27
25 -6 14 -22 32 -35 40 -12 9 -23 22 -23 29 0 8 -11 21 -25 30 -14 9 -25 23
-25 31 0 8 -9 20 -20 27 -11 7 -20 21 -20 30 0 10 -9 22 -19 28 -11 5 -23 20
-27 32 -4 13 -15 29 -25 36 -11 7 -19 19 -19 26 0 7 -9 21 -20 31 -11 10 -20
23 -20 30 0 7 -9 20 -20 30 -11 10 -20 25 -20 34 0 9 -9 22 -20 29 -11 7 -20
20 -20 30 0 10 -9 25 -20 35 -11 9 -20 23 -20 30 0 8 -9 22 -20 32 -11 10 -20
26 -20 37 0 10 -4 18 -9 18 -5 0 -16 17 -25 38 -21 47 -41 81 -55 95 -6 6 -11
21 -11 34 0 13 -4 23 -10 23 -5 0 -13 12 -16 28 -4 15 -15 38 -26 51 -10 13
-18 31 -18 40 0 9 -7 25 -15 35 -8 11 -15 27 -15 37 0 9 -7 22 -15 29 -9 7
-14 19 -11 25 2 7 0 17 -4 21 -5 5 -18 36 -29 69 -11 33 -27 80 -36 105 -20
53 -38 135 -72 325 -24 132 -25 165 -30 590 -2 248 -4 457 -4 465 1 61 -2 304
-4 340 -2 25 -6 95 -9 155 -3 61 -11 155 -16 210 -6 55 -12 132 -14 170 -12
201 -35 387 -47 379 -5 -3 -9 0 -9 5 0 6 5 11 11 11 7 0 9 9 6 23 -4 12 -9 69
-12 127 -3 58 -10 163 -15 234 -5 72 -7 133 -5 136 8 12 7 165 -1 184 -5 13
-4 17 4 13 7 -5 15 13 22 49 19 92 57 182 123 291 34 57 70 117 79 135 45 83
136 211 163 228 26 17 101 74 130 99 12 10 103 108 129 139 l19 22 -1701 0
-1702 0 0 -3540z"/>
<path d="M5030 9995 c0 -23 26 -117 41 -144 14 -27 15 -37 6 -52 -8 -13 -9
-22 -2 -27 6 -4 11 -35 12 -70 1 -40 8 -73 18 -89 10 -14 12 -22 6 -18 -12 7
-9 -32 10 -120 18 -87 22 -100 35 -108 8 -4 14 -18 13 -30 -1 -21 -2 -20 -9 3
-7 21 -8 22 -9 5 -1 -27 62 -265 89 -338 12 -31 26 -55 31 -52 5 4 6 -1 3 -9
-4 -11 0 -16 12 -17 11 0 13 -3 7 -6 -9 -3 -7 -15 7 -44 11 -21 23 -39 26 -39
2 0 -1 10 -7 23 -12 22 -12 22 10 3 22 -20 30 -53 9 -40 -7 4 -8 3 -4 -5 4 -6
12 -9 17 -6 5 4 9 -1 9 -10 0 -9 5 -13 10 -10 6 3 10 -1 10 -10 0 -10 5 -13
12 -9 7 4 8 3 4 -4 -15 -24 6 -32 24 -10 11 13 19 19 20 15 0 -5 -7 -16 -16
-24 -11 -11 -14 -24 -9 -42 4 -14 6 -54 5 -88 -1 -33 2 -63 7 -66 4 -3 4 -67
-1 -144 -4 -76 -9 -159 -10 -185 0 -27 -5 -48 -10 -48 -5 0 -6 -15 -3 -34 3
-19 0 -39 -6 -46 -9 -10 -9 -14 1 -17 10 -4 10 -8 1 -19 -9 -11 -9 -40 -1
-118 7 -57 9 -162 6 -232 -4 -71 -1 -228 6 -349 6 -121 16 -328 20 -460 5
-132 13 -276 19 -320 13 -95 47 -509 57 -680 4 -66 13 -133 19 -149 8 -18 11
-52 7 -88 l-5 -59 29 12 c16 7 35 20 42 28 7 9 12 10 12 3 0 -7 10 -12 23 -11
21 0 21 1 2 9 -19 8 -19 9 3 9 15 1 21 5 16 13 -5 8 0 9 14 6 14 -4 25 -1 31
9 4 9 25 21 46 29 33 11 44 10 94 -9 31 -12 58 -25 59 -29 2 -5 9 -5 15 -1 7
3 9 3 5 -2 -4 -4 2 -19 12 -33 11 -13 20 -31 20 -38 0 -7 9 -15 19 -19 21 -6
118 60 113 77 -1 5 2 7 7 4 5 -3 31 4 58 15 55 25 172 28 226 6 18 -7 56 -12
85 -12 29 1 56 -3 58 -7 3 -5 15 -6 26 -2 13 4 18 2 14 -5 -8 -12 61 -44 75
-35 12 7 65 -54 80 -91 22 -54 26 -55 77 -27 42 23 240 165 252 181 13 17 210
180 249 206 110 74 181 117 210 125 14 4 26 13 25 21 -1 8 9 14 25 15 27 1 56
8 94 20 78 27 357 -25 357 -66 0 -5 9 -12 20 -15 34 -11 80 -124 91 -223 9
-84 22 -165 53 -342 8 -47 18 -116 21 -155 4 -38 11 -87 16 -108 8 -29 7 -41
-4 -51 -12 -12 -8 -39 24 -183 75 -329 99 -551 82 -736 -9 -85 -8 -90 20 -146
28 -57 29 -64 34 -255 l6 -196 51 6 c28 3 85 10 126 15 41 5 161 18 265 29
105 11 255 26 335 35 352 38 757 75 814 75 l46 0 0 49 c0 30 -5 52 -12 55 -10
5 -10 7 0 12 10 5 12 239 12 1139 0 1102 -1 1133 -19 1128 -30 -8 -33 12 -5
42 21 23 24 35 22 79 -3 47 -4 49 -15 26 -8 -17 -12 -20 -12 -8 -1 9 7 29 16
46 16 29 13 62 -7 62 -5 0 -19 -9 -29 -19 -11 -11 -22 -17 -25 -13 -3 3 -6 -2
-6 -11 0 -19 -15 -23 -25 -6 -4 6 2 17 14 25 20 14 30 45 14 43 -5 -1 -12 0
-18 1 -5 2 -18 3 -27 4 -26 1 -21 21 5 21 13 0 22 6 22 15 0 9 -9 15 -22 15
-12 0 -25 4 -29 8 -4 4 0 7 9 7 15 0 17 11 15 85 -2 47 -5 85 -7 85 -3 0 -12
-7 -22 -16 -13 -12 -26 -14 -46 -9 -15 4 -22 10 -15 12 7 3 12 22 12 44 0 24
5 39 12 39 9 0 9 3 1 11 -15 15 -33 2 -33 -24 0 -12 -5 -29 -10 -37 -8 -13
-10 -12 -10 3 0 23 -16 22 -33 -3 -13 -18 -15 -19 -21 -5 -3 9 -6 25 -6 36 0
10 -4 19 -10 19 -5 0 -10 7 -10 15 0 8 -4 15 -10 15 -5 0 -10 -7 -10 -15 0
-19 -56 -21 -63 -2 -4 10 -7 10 -18 0 -16 -15 -33 -17 -24 -3 3 6 -3 10 -14
10 -12 0 -21 -4 -21 -10 0 -5 -9 -10 -20 -10 -17 0 -20 -7 -20 -40 0 -48 -19
-54 -21 -7 -1 17 -3 39 -4 47 -1 8 -3 38 -5 65 -1 28 -4 42 -7 33 -2 -10 -12
-18 -22 -18 -14 0 -17 6 -13 29 3 22 -2 35 -22 52 -14 12 -26 30 -26 39 0 9
-5 21 -12 28 -9 9 -9 12 0 12 16 0 15 27 0 33 -10 3 -10 9 0 26 11 19 10 21
-13 21 -15 0 -29 -8 -36 -21 -8 -17 -13 -19 -19 -9 -6 9 -9 4 -12 -16 -3 -31
-38 -49 -38 -20 0 9 -4 16 -10 16 -5 0 -10 -4 -10 -9 0 -5 -3 -17 -6 -26 -4
-9 -3 -15 2 -14 22 4 34 -2 34 -17 0 -13 -7 -15 -30 -10 -16 3 -30 2 -30 -3 0
-5 -13 -11 -30 -13 -20 -3 -30 0 -30 9 0 7 7 13 16 13 8 0 22 6 30 14 12 13
10 15 -18 19 -29 3 -27 4 10 5 38 2 42 5 42 27 0 21 -6 26 -40 31 -22 4 -40
10 -40 15 0 17 -24 9 -52 -18 -22 -21 -28 -23 -28 -10 0 9 7 17 15 17 11 0 15
12 15 50 0 38 4 50 15 50 9 0 15 9 15 23 0 13 9 33 20 45 25 27 25 35 1 27
-26 -8 -36 11 -14 24 14 7 15 13 6 22 -14 14 -33 4 -33 -17 0 -11 -6 -13 -20
-9 -15 5 -20 2 -20 -13 0 -15 5 -19 20 -15 18 5 19 3 11 -20 -5 -14 -7 -34 -4
-46 4 -15 1 -21 -11 -21 -12 0 -16 -10 -16 -40 0 -22 -4 -40 -10 -40 -5 0 -10
18 -10 40 0 33 -3 40 -20 40 -16 0 -20 -7 -20 -35 0 -36 -25 -75 -47 -75 -20
0 -15 24 7 38 20 12 28 42 11 42 -5 0 -18 -10 -28 -23 -24 -31 -52 -41 -60
-21 -3 8 -1 20 6 27 8 8 11 8 11 -1 0 -7 5 -12 10 -12 6 0 10 7 10 15 0 19
-29 19 -54 0 -17 -13 -20 -12 -33 12 -7 15 -10 29 -5 32 17 12 20 40 6 51 -11
10 -17 10 -29 0 -11 -9 -18 -10 -29 -1 -11 9 -15 7 -20 -11 -9 -35 -8 -36 29
-49 35 -13 48 -39 20 -39 -8 0 -15 5 -15 10 0 6 -11 10 -24 10 -18 0 -25 6
-28 22 -3 22 -4 22 -30 -7 -16 -16 -28 -24 -28 -17 0 6 -9 12 -19 12 -34 0
-49 10 -44 30 3 11 2 27 -1 36 -5 13 -9 14 -21 4 -12 -10 -15 -9 -15 8 0 11
-4 22 -10 24 -5 2 -4 25 4 58 8 30 14 51 15 46 2 -13 31 15 31 30 0 10 -16 14
-60 14 l-60 0 0 -55 0 -55 -40 0 c-24 0 -40 -5 -40 -12 0 -6 -3 -8 -7 -5 -3 4
-15 -1 -25 -10 -16 -14 -21 -15 -27 -4 -5 8 -14 10 -20 7 -16 -11 -26 24 -13
45 17 27 16 29 -28 29 -31 0 -40 -4 -40 -17 0 -13 3 -14 12 -5 7 7 19 12 27
12 11 0 10 -4 -4 -20 -17 -19 -17 -21 0 -40 14 -16 15 -20 4 -20 -8 0 -20 5
-27 12 -9 9 -12 6 -12 -15 0 -32 -7 -33 -39 -7 -21 18 -23 26 -19 95 2 41 0
75 -5 75 -8 0 -9 39 -5 182 2 55 -7 69 -26 43 -7 -10 -18 -15 -25 -11 -16 10
-41 -12 -41 -35 0 -26 -9 -24 -47 11 -37 33 -42 50 -15 50 14 0 14 2 3 9 -20
13 -48 -16 -32 -32 6 -6 11 -21 11 -34 0 -14 6 -23 15 -23 11 0 15 -11 15 -40
0 -29 -4 -40 -15 -40 -8 0 -15 -4 -15 -10 0 -5 7 -7 15 -4 9 4 15 0 15 -9 0
-9 -8 -15 -19 -14 -11 0 -19 4 -18 7 2 11 -15 50 -23 50 -5 0 -22 -8 -39 -17
-24 -14 -33 -15 -42 -6 -10 10 -6 14 19 19 18 4 32 11 32 17 0 6 10 21 22 34
17 18 19 26 10 35 -10 10 -17 7 -35 -15 -21 -26 -24 -27 -54 -15 -33 13 -38
27 -23 63 7 18 9 16 15 -13 10 -44 22 -49 30 -12 4 16 11 28 17 27 6 -1 13 4
15 11 3 6 0 12 -6 12 -6 0 -11 17 -11 39 0 37 -1 39 -40 45 -32 5 -40 10 -40
27 0 21 1 21 26 4 14 -9 35 -14 46 -12 11 3 21 0 25 -9 3 -8 12 -14 20 -14 14
0 14 2 0 23 -8 12 -21 22 -28 23 -8 0 -30 8 -49 16 -34 16 -34 16 -8 17 15 1
30 -4 34 -10 4 -8 9 -7 15 2 8 12 11 11 19 -1 9 -13 11 -13 20 0 11 17 -8 28
-51 29 -14 1 -34 10 -43 20 -10 11 -25 17 -35 14 -22 -6 -26 0 -35 47 -7 45 6
69 28 51 14 -12 16 -9 16 24 0 24 6 43 18 51 15 12 15 13 1 14 -9 0 -32 -14
-49 -30 -25 -23 -33 -40 -34 -67 -1 -20 -7 -38 -14 -41 -22 -7 -7 88 22 138
38 66 34 160 -5 109 -9 -13 -21 -19 -28 -15 -9 6 -9 11 0 22 18 21 -13 53 -34
36 -11 -10 -17 -9 -27 3 -10 12 -10 15 4 15 26 0 18 14 -16 30 -58 27 -46 38
36 34 64 -3 76 -1 76 13 0 12 3 13 13 4 16 -13 27 -5 27 21 0 19 -15 24 -24 9
-3 -5 -15 -7 -25 -4 -10 3 -22 0 -25 -6 -12 -18 -26 -12 -26 10 0 12 5 19 12
17 19 -7 80 65 65 74 -19 12 -47 9 -47 -4 0 -9 -4 -8 -10 2 -5 8 -10 32 -10
52 0 34 -2 37 -26 35 -15 -1 -29 4 -31 11 -3 8 6 12 26 12 31 0 41 13 20 26
-6 3 -16 1 -22 -5 -18 -18 -27 -13 -27 14 0 18 5 25 20 25 11 0 21 6 21 13 1
6 2 18 3 24 0 7 19 22 40 33 39 19 55 17 77 -13 4 -5 20 -2 37 7 39 20 42 20
42 -4 0 -23 15 -27 23 -6 7 16 -21 41 -56 50 -28 7 -35 20 -17 31 17 10 11 25
-10 25 -16 0 -20 -7 -20 -30 0 -19 -5 -30 -14 -30 -9 0 -12 7 -9 20 3 11 0 20
-6 20 -6 0 -20 9 -31 20 l-20 20 0 -29 c0 -17 5 -33 12 -37 17 -11 -21 -23
-51 -17 -14 4 -27 0 -32 -8 -7 -11 -9 -10 -9 4 0 10 -7 20 -15 23 -8 4 -15 10
-15 15 0 5 7 9 15 9 10 0 15 11 15 35 0 24 -5 35 -15 35 -8 0 -15 -9 -15 -20
0 -15 -6 -19 -30 -17 -37 2 -37 28 0 37 20 5 25 12 25 38 0 17 5 36 12 43 17
17 36 0 29 -26 -4 -16 -1 -25 10 -29 26 -10 31 -7 48 27 l16 32 0 -27 c0 -30
17 -38 26 -13 4 8 18 15 33 15 22 -1 24 -2 9 -11 -21 -12 -24 -49 -4 -49 14 0
24 41 18 72 -2 9 -12 20 -22 23 -21 7 -16 35 6 35 8 0 14 9 14 20 0 17 7 20
39 20 46 0 68 20 52 47 -10 17 -10 17 -11 1 0 -14 -9 -18 -40 -18 l-40 0 0 70
c0 58 -3 68 -15 64 -18 -7 -20 -37 -4 -65 14 -28 -16 -62 -48 -56 -21 4 -23 1
-23 -39 0 -42 -1 -44 -30 -44 -28 0 -30 2 -30 39 0 32 6 46 32 70 17 16 37 27
43 25 8 -3 19 15 29 45 20 63 21 59 -11 64 -20 3 -15 4 15 6 26 0 42 6 43 14
0 6 2 35 3 62 2 28 2 38 -1 23 -4 -25 -8 -28 -44 -28 l-39 0 0 64 0 63 -40 0
c-27 0 -40 -4 -40 -13 0 -20 -30 -17 -37 4 -3 9 -13 25 -21 34 -13 16 -13 18
2 24 9 3 16 15 16 26 0 23 24 19 28 -5 2 -10 -3 -17 -12 -17 -20 0 -21 -16 -1
-24 8 -3 15 0 16 7 0 7 4 3 9 -8 7 -19 8 -18 18 7 13 31 31 44 36 26 2 -7 7
-22 11 -33 7 -19 8 -18 14 5 5 17 9 21 15 12 4 -6 21 -12 38 -12 l30 0 -23 20
-24 20 23 20 c13 11 21 23 18 28 -3 5 -6 37 -7 71 -1 37 -8 68 -16 76 -18 19
-16 25 7 25 11 0 20 -4 20 -10 0 -5 5 -10 11 -10 16 0 48 -42 49 -62 0 -24 16
-23 23 1 3 12 17 20 46 25 45 7 59 24 43 53 -8 13 -5 24 9 44 19 27 16 39 -8
39 -7 0 -13 -11 -13 -26 0 -17 -6 -28 -18 -31 -11 -2 -25 -20 -32 -39 -18 -45
-30 -43 -30 5 l0 39 -40 -5 c-26 -4 -40 -2 -40 6 0 6 -7 11 -15 11 -8 0 -15 5
-15 10 0 6 7 10 15 10 8 0 15 7 15 16 0 13 -8 15 -40 12 -27 -2 -41 1 -45 10
-3 10 -14 12 -36 7 -25 -6 -31 -4 -36 14 -3 12 -12 21 -19 21 -18 0 -18 16 0
23 9 4 16 -3 20 -19 6 -23 36 -35 36 -14 0 6 7 10 15 10 7 0 18 8 24 17 5 10
13 14 18 10 4 -5 -1 -15 -11 -23 -15 -10 -17 -17 -9 -25 9 -9 25 -7 62 7 52
18 61 37 12 28 -16 -4 -32 -1 -35 5 -4 6 -2 11 5 11 6 0 9 8 6 19 -2 11 4 33
14 50 11 18 19 38 19 46 0 23 17 18 24 -7 8 -32 7 -38 -5 -38 -6 0 -17 -7 -25
-15 -13 -13 -12 -14 15 -9 26 6 31 3 31 -14 0 -11 7 -25 15 -32 11 -9 18 -8
35 8 21 19 21 21 3 31 -15 8 -10 10 25 11 26 0 41 -4 37 -10 -3 -5 -12 -10
-19 -10 -7 0 -12 -10 -12 -22 1 -15 -7 -24 -24 -29 -14 -4 -19 -7 -12 -8 6 -1
12 -7 12 -15 0 -8 -6 -16 -12 -19 -10 -3 -10 -9 -2 -23 17 -29 39 -24 37 8 -1
24 2 27 30 27 57 -1 87 -18 87 -50 0 -16 -5 -29 -11 -29 -6 0 -9 -15 -8 -35 3
-25 -2 -38 -15 -48 -12 -9 -17 -20 -13 -31 9 -23 24 -20 33 6 9 30 30 49 46
43 10 -4 12 5 10 40 -4 45 -4 45 28 45 27 0 31 3 25 18 -4 9 -10 27 -12 40 -6
27 -23 29 -23 3 0 -43 -10 -50 -36 -24 -25 25 -31 43 -14 43 6 0 6 7 -2 19 -9
15 -8 24 5 45 13 19 14 26 5 26 -24 0 -33 -15 -33 -49 0 -19 -5 -36 -12 -38
-18 -6 -27 41 -13 68 10 18 10 23 -4 31 -9 5 -16 19 -16 31 0 23 -20 62 -20
40 0 -7 -11 -13 -25 -13 -16 0 -25 6 -25 15 0 8 -7 15 -15 15 -8 0 -15 7 -15
15 0 8 -7 15 -15 15 -15 0 -19 -10 -16 -42 3 -23 -12 -23 -33 1 -17 19 -17 20
3 31 12 6 21 15 21 20 0 7 -516 10 -1425 10 -784 0 -1425 -2 -1425 -5z m2625
-1905 c3 -5 -2 -10 -12 -11 -11 0 -5 -6 16 -15 27 -12 32 -19 28 -39 -3 -19 0
-25 14 -25 14 0 19 7 19 29 0 33 14 48 26 29 5 -8 10 -6 16 8 5 12 5 6 1 -16
-3 -19 -6 -44 -6 -55 1 -11 -1 -14 -4 -7 -7 19 -30 14 -36 -9 -3 -12 -2 -31 2
-42 5 -13 4 -29 -3 -39 -8 -13 -8 -23 0 -36 14 -22 -11 -51 -29 -33 -8 8 -8
11 0 11 8 0 8 7 0 25 -10 20 -19 25 -49 25 -32 0 -38 3 -38 21 0 25 68 58 80
39 5 -8 10 -9 14 -1 7 11 -14 51 -28 51 -4 0 -3 7 4 15 19 23 2 38 -36 32 -25
-4 -34 -2 -34 8 0 7 6 16 13 18 7 3 4 6 -6 6 -27 1 -10 21 18 21 13 0 27 -4
30 -10z"/>
<path d="M3416 8895 c-11 -8 -16 -15 -10 -15 5 0 4 -4 -2 -8 -6 -4 -19 -23
-29 -42 -24 -45 -27 -222 -9 -505 19 -301 34 -651 35 -830 1 -88 5 -169 9
-180 13 -30 12 581 -1 800 -23 397 -15 689 21 740 6 9 12 56 7 55 -1 0 -11 -7
-21 -15z"/>
<path d="M4462 7938 c-6 -18 -8 -183 -2 -183 1 0 3 -54 5 -120 5 -155 12 -285
21 -360 3 -33 7 -78 8 -100 1 -23 6 -46 10 -53 4 -7 5 -24 2 -36 -4 -15 0 -28
9 -36 11 -9 12 -17 4 -32 -8 -14 -8 -23 0 -31 6 -6 11 -25 12 -42 0 -25 2 -27
9 -10 5 13 3 28 -7 43 -11 18 -12 26 -2 38 8 10 8 18 0 27 -6 7 -11 27 -11 43
-1 76 -2 90 -11 101 -6 6 -7 22 -4 36 4 14 2 34 -4 45 -7 14 -8 23 -1 27 6 4
7 12 3 18 -4 6 -8 30 -9 52 -9 186 -16 408 -18 492 0 57 -2 103 -4 103 -1 0
-6 -10 -10 -22z"/>
<path d="M7338 5701 c-34 -24 -55 -54 -50 -73 1 -4 -5 -4 -14 -1 -10 4 -20 -1
-26 -12 -6 -11 -13 -13 -17 -7 -4 6 -15 1 -28 -14 -20 -23 -21 -24 -2 -24 10
0 19 -4 19 -9 0 -13 -43 -22 -50 -11 -3 5 -14 0 -24 -12 -15 -17 -16 -25 -7
-40 15 -24 14 -28 -9 -28 -12 0 -17 5 -14 14 3 9 -4 15 -20 18 -29 6 -35 -6
-9 -16 11 -5 13 -10 6 -17 -6 -6 -19 -6 -35 0 -25 9 -26 8 -24 -25 1 -19 -2
-34 -6 -34 -7 0 -12 15 -9 32 0 4 -6 5 -14 2 -8 -4 -15 -10 -15 -16 0 -5 4 -7
9 -3 6 3 9 -3 8 -14 -1 -16 -5 -18 -19 -10 -10 5 -18 16 -18 24 0 8 -4 15 -8
15 -5 0 -10 -20 -10 -44 l-2 -44 92 -47 c147 -76 217 -97 343 -102 95 -4 119
-2 175 17 35 12 76 30 91 41 28 20 47 71 22 62 -7 -3 -13 2 -13 11 0 24 4 31
17 30 6 -1 9 5 6 12 -5 15 -23 19 -23 6 0 -4 -11 -9 -25 -10 -25 -2 -35 13
-14 20 6 2 9 15 6 28 l-4 25 -8 -22 c-4 -13 -15 -23 -24 -23 -9 0 -12 -3 -6
-8 9 -7 16 -52 8 -52 -12 0 -29 27 -25 39 3 8 -1 12 -9 9 -8 -3 -22 8 -31 24
-20 32 -23 42 -8 33 6 -3 7 1 4 9 -3 9 -11 14 -17 13 -6 -1 -11 4 -12 12 0 18
-21 26 -30 12 -3 -6 -1 -11 4 -11 6 0 11 -8 11 -19 0 -12 -9 -20 -26 -24 -19
-3 -24 -1 -20 10 3 8 6 17 6 19 0 3 4 3 8 0 4 -2 6 11 4 31 -3 22 -8 31 -14
25 -5 -5 -8 -18 -6 -28 3 -20 -19 -54 -36 -54 -5 0 -2 8 6 18 21 24 12 40 -20
36 -15 -2 -21 -1 -14 2 6 3 12 17 12 30 0 15 6 24 16 24 12 0 15 6 10 24 -4
16 0 30 9 40 8 8 12 21 9 29 -3 9 4 25 15 36 12 12 21 27 21 34 -1 6 -9 2 -20
-11 -11 -13 -24 -21 -30 -17 -5 3 -18 1 -28 -4 -28 -15 -37 1 -11 20 37 27 6
28 -33 0z"/>
<path d="M7973 5319 c4 -13 7 -43 7 -65 0 -33 10 -57 48 -113 40 -59 50 -69
70 -64 23 5 26 0 22 -47 -2 -33 -27 -169 -45 -245 -7 -33 -19 -91 -25 -130
-22 -130 -90 -312 -151 -402 -16 -23 -29 -45 -29 -48 0 -17 -66 -115 -78 -115
-7 0 -11 -4 -7 -10 8 -12 -16 -50 -32 -50 -7 0 -13 -9 -13 -20 0 -14 -7 -20
-21 -20 -16 0 -20 -5 -16 -19 3 -14 -2 -21 -20 -25 -13 -4 -21 -11 -18 -16 12
-19 -8 -10 -27 12 -14 16 -21 19 -30 10 -9 -9 -8 -12 5 -12 9 0 17 -4 17 -8 0
-19 -13 -19 -32 0 -14 14 -19 29 -16 49 3 20 0 29 -9 29 -17 0 -17 20 0 20 6
0 4 5 -6 11 -9 6 -30 9 -45 7 -15 -2 -28 2 -29 7 -2 6 5 11 15 11 34 3 37 5
16 14 -32 13 -74 1 -74 -21 0 -11 -5 -19 -11 -19 -6 0 -8 9 -4 20 4 12 2 20
-5 20 -6 0 -9 4 -6 9 3 4 -2 17 -10 27 -14 18 -15 17 -11 -14 2 -18 0 -35 -5
-38 -4 -3 -8 0 -8 6 0 6 -4 8 -10 5 -6 -3 -7 1 -4 9 3 9 2 16 -2 17 -41 3 -68
10 -79 19 -12 10 -13 3 -10 -37 l3 -48 -12 37 c-14 46 -22 54 -40 39 -12 -11
-14 -8 -12 16 2 15 2 33 -1 39 -4 12 -63 6 -63 -6 0 -5 8 -6 19 -3 26 7 32 -9
18 -46 -14 -38 -36 -42 -29 -5 4 20 1 25 -9 22 -8 -3 -15 -14 -17 -26 -4 -25
-32 -31 -32 -7 0 8 -4 15 -10 15 -5 0 -10 -7 -10 -15 0 -8 -4 -15 -10 -15 -5
0 -10 11 -10 24 0 14 -4 28 -10 31 -6 3 -10 -5 -10 -18 0 -20 -4 -24 -20 -20
-11 3 -17 9 -14 14 3 5 1 9 -4 9 -5 0 -12 -9 -15 -20 -3 -13 0 -20 10 -20 8 0
13 -6 10 -12 -2 -7 -13 -12 -25 -10 -11 2 -23 -2 -27 -8 -5 -8 -10 -8 -20 0
-10 9 -16 6 -25 -9 -16 -30 -34 -26 -26 5 5 19 3 25 -6 22 -20 -7 -41 21 -40
53 0 18 -4 29 -13 29 -18 0 -28 -17 -15 -25 5 -3 10 -15 10 -26 0 -10 5 -19
10 -19 6 0 10 -6 10 -14 0 -8 7 -17 16 -20 8 -3 12 -10 9 -16 -11 -17 -24 -11
-39 18 -14 24 -15 25 -16 6 0 -22 -22 -33 -53 -26 -20 4 -47 62 -47 101 0 17
-3 22 -9 13 -12 -20 6 -115 26 -129 11 -9 12 -13 4 -13 -8 0 -11 -6 -7 -15 12
-31 -11 -13 -29 23 -19 37 -19 37 -23 10 -2 -19 -8 -25 -18 -21 -10 4 -14 -3
-14 -25 0 -32 -15 -54 -16 -24 -1 9 -5 30 -9 46 -7 26 -6 29 14 23 22 -5 31
16 11 28 -5 3 -10 16 -11 28 -2 33 -20 -38 -24 -91 -3 -44 -15 -72 -15 -34 0
11 -4 23 -9 26 -5 3 -12 -21 -16 -54 -4 -33 -11 -60 -17 -60 -5 0 -6 19 -2 46
5 34 4 45 -5 40 -6 -4 -11 -13 -11 -19 0 -7 -6 -24 -14 -39 -10 -19 -11 -29
-3 -37 6 -6 7 -11 3 -11 -12 0 -44 39 -51 61 -4 11 -10 19 -15 19 -14 0 -21
-18 -10 -25 16 -10 12 -55 -4 -49 -8 3 -17 13 -19 22 -2 10 -8 -7 -12 -36 -4
-29 -12 -55 -18 -59 -6 -3 -8 6 -5 25 4 26 1 31 -19 35 -15 3 -23 -1 -23 -10
0 -8 5 -11 10 -8 6 4 10 -7 10 -26 0 -27 -2 -30 -15 -19 -8 7 -15 9 -15 4 0
-5 -5 -2 -10 6 -8 12 -10 10 -10 -8 0 -13 4 -20 10 -17 6 3 10 1 10 -4 0 -6
-4 -11 -10 -11 -5 0 -10 -10 -10 -22 0 -20 -1 -20 -18 -5 -25 23 -29 21 -34
-8 -5 -21 -2 -25 13 -20 13 5 19 1 19 -10 0 -11 -6 -14 -25 -9 -19 5 -25 2
-25 -11 0 -9 -4 -14 -9 -10 -6 3 -8 -7 -6 -22 2 -16 4 -31 4 -35 1 -5 8 -8 16
-8 15 0 33 -66 20 -78 -4 -4 -10 -1 -12 6 -3 6 -9 12 -14 12 -14 0 -11 -30 5
-46 16 -16 30 -19 21 -5 -3 5 -1 12 5 16 5 3 10 1 10 -6 0 -7 9 -9 28 -5 43
11 94 24 132 34 274 76 494 126 739 168 112 19 207 37 212 39 4 3 33 9 66 14
131 20 185 34 190 48 3 8 8 10 12 5 7 -12 324 77 343 97 11 11 9 12 -12 7 -18
-5 -15 -1 11 13 45 25 55 38 64 80 5 23 4 31 -4 27 -7 -5 -11 5 -11 28 0 19
-6 37 -12 39 -8 3 -5 6 5 6 10 1 15 6 12 12 -4 6 -9 8 -13 5 -3 -3 -10 2 -17
11 -13 18 -49 28 -39 11 4 -6 -2 -8 -12 -6 -11 2 -18 10 -17 16 2 7 -2 12 -7
12 -6 0 -10 10 -10 22 0 21 0 21 -16 2 -8 -10 -13 -14 -10 -7 4 6 1 15 -5 18
-7 5 -10 -1 -9 -16 4 -46 1 -53 -15 -39 -12 10 -15 9 -15 -5 0 -10 7 -26 16
-36 10 -11 12 -19 5 -24 -6 -3 -11 2 -11 12 0 14 -2 15 -9 4 -12 -19 -21 1
-13 30 4 13 24 56 45 96 30 58 40 71 54 66 15 -6 16 -4 6 8 -9 11 -7 23 8 53
11 22 23 42 27 45 4 4 7 12 8 19 3 38 5 43 13 38 5 -3 9 4 9 17 0 12 11 63 25
112 14 50 28 113 32 140 3 28 15 95 25 150 11 55 21 132 22 170 2 39 7 73 12
76 4 4 3 10 -3 13 -6 4 -11 2 -11 -3 0 -18 -36 -13 -53 7 -24 26 -67 114 -61
124 7 11 -30 93 -46 103 -10 6 -12 2 -7 -16z"/>
<path d="M4468 4478 c-67 -22 -139 -47 -158 -56 l-35 -16 40 -9 c22 -5 77 -17
122 -28 60 -15 88 -17 100 -10 15 9 12 11 -17 12 -19 1 -39 2 -45 4 -5 1 -19
3 -30 4 -26 2 240 71 280 72 17 0 39 4 50 8 16 6 11 11 -32 25 -111 37 -140
36 -275 -6z"/>
<path d="M4772 3558 c-16 -16 -15 -35 1 -42 6 -3 -1 -4 -18 -3 -26 2 -30 -1
-30 -24 0 -17 -4 -25 -11 -22 -21 8 -26 -17 -9 -44 11 -17 14 -28 7 -35 -15
-15 -32 0 -32 28 0 15 -6 24 -15 24 -17 0 -20 -25 -5 -35 6 -3 10 -17 10 -31
0 -15 -4 -23 -10 -19 -6 4 -8 10 -5 15 3 5 -3 14 -14 19 -28 16 -34 14 -28 -9
3 -13 0 -20 -10 -20 -10 0 -13 6 -9 16 8 22 -3 38 -17 25 -7 -5 -43 -12 -81
-15 -65 -5 -91 -16 -109 -43 -4 -7 -15 -13 -23 -13 -10 0 -13 -7 -8 -25 8 -30
-10 -34 -28 -5 -7 11 -19 20 -27 20 -11 0 -11 -3 -1 -15 17 -20 5 -32 -15 -15
-12 10 -19 10 -27 2 -15 -15 -48 -16 -48 -2 0 6 -7 10 -16 10 -8 0 -12 -4 -9
-10 3 -5 0 -10 -7 -11 -7 -1 -31 -2 -53 -3 -22 -2 -50 -4 -62 -4 -13 -1 -32
-11 -43 -22 -11 -11 -20 -16 -20 -10 0 13 -59 2 -89 -17 -13 -9 -58 -17 -105
-20 -44 -2 -88 -7 -96 -11 -8 -3 -22 -6 -30 -7 -27 -2 -70 -17 -70 -24 0 -4
-23 -5 -50 -1 -35 4 -54 3 -61 -6 -5 -7 -21 -15 -34 -18 -14 -4 -25 -13 -25
-22 0 -25 -30 -74 -45 -74 -17 0 -20 -16 -4 -25 33 -21 1081 6 1209 30 14 3
104 12 200 20 281 24 380 42 380 70 0 8 6 16 13 18 8 4 7 6 -4 6 -15 1 -30 23
-43 64 -3 10 -10 16 -15 12 -11 -6 -44 36 -35 44 3 3 10 -1 15 -9 8 -11 9 -3
5 27 -5 33 -3 44 11 52 14 8 15 11 3 11 -12 0 -11 3 3 11 18 11 24 69 7 69 -5
0 -10 -5 -10 -11 0 -6 -9 -9 -20 -6 -11 3 -23 1 -26 -4 -3 -5 -15 -4 -27 3
-19 10 -56 12 -65 3 -2 -2 4 -20 13 -41 53 -122 99 -284 77 -271 -5 4 -13 19
-17 34 -8 35 -47 117 -58 121 -4 2 -5 8 -2 12 3 5 2 21 -1 37 -7 24 -8 25 -15
8 -6 -18 -8 -17 -19 10 -7 17 -14 39 -16 50 -4 35 -21 69 -45 95 -13 14 -24
32 -24 40 0 10 -13 16 -38 18 -22 2 -41 10 -44 18 -6 17 -15 18 -31 2z"/>
<path d="M8180 3275 c-7 -9 -20 -13 -28 -10 -8 3 -23 -2 -33 -11 -10 -9 -23
-13 -28 -9 -6 3 -18 -1 -27 -9 -9 -9 -20 -13 -25 -10 -6 3 -19 -2 -29 -11 -10
-9 -23 -14 -29 -11 -6 4 -21 1 -33 -6 -13 -7 -29 -11 -36 -9 -8 1 -23 -6 -34
-15 -16 -15 -21 -16 -28 -4 -7 12 -12 12 -28 -3 -10 -10 -26 -15 -35 -11 -9 3
-26 -1 -38 -10 -16 -11 -26 -12 -35 -5 -8 7 -17 5 -28 -7 -9 -9 -24 -13 -33
-10 -9 4 -27 -1 -40 -9 -13 -9 -28 -13 -33 -10 -5 3 -20 -1 -34 -10 -17 -11
-26 -13 -31 -5 -5 8 -14 6 -30 -4 -13 -9 -31 -13 -40 -10 -8 4 -22 1 -30 -6
-8 -7 -24 -10 -34 -7 -11 3 -29 -1 -40 -9 -10 -8 -26 -11 -34 -8 -9 3 -27 -2
-40 -11 -18 -11 -26 -13 -29 -4 -3 9 -10 9 -28 -2 -14 -7 -33 -12 -43 -10 -10
1 -24 -3 -32 -9 -7 -6 -24 -8 -37 -5 -16 4 -29 1 -38 -10 -8 -9 -20 -13 -32
-9 -10 3 -25 0 -33 -6 -8 -7 -22 -9 -31 -6 -9 4 -23 1 -32 -6 -8 -7 -27 -14
-41 -15 -57 -4 -88 -10 -102 -19 -8 -4 -22 -7 -32 -6 -10 2 -24 -2 -32 -8 -8
-7 -19 -9 -24 -5 -6 3 -21 0 -33 -7 -13 -7 -29 -11 -36 -9 -8 1 -20 -3 -28
-10 -7 -6 -20 -9 -28 -6 -8 3 -22 -1 -33 -8 -10 -8 -28 -11 -40 -8 -14 3 -23
1 -23 -6 0 -6 -11 -11 -24 -11 -14 0 -28 -5 -32 -11 -3 -6 -15 -9 -25 -6 -10
3 -24 -1 -30 -9 -7 -8 -20 -12 -29 -9 -9 3 -22 -1 -29 -9 -6 -8 -21 -12 -31
-9 -12 3 -20 0 -20 -7 0 -8 -8 -10 -24 -6 -15 4 -28 0 -36 -10 -7 -8 -19 -13
-26 -10 -7 3 -18 -2 -25 -10 -7 -8 -18 -13 -25 -10 -7 3 -18 -2 -24 -9 -7 -8
-16 -12 -21 -10 -4 3 -16 2 -26 -3 -10 -6 -31 -15 -48 -22 -16 -7 -38 -16 -48
-22 -10 -5 -22 -6 -26 -3 -5 2 -14 -2 -21 -10 -6 -7 -17 -12 -24 -9 -7 3 -18
-2 -25 -10 -7 -8 -19 -12 -27 -9 -8 3 -14 0 -14 -7 0 -7 -8 -10 -20 -7 -10 3
-24 -1 -30 -8 -6 -8 -18 -11 -26 -8 -8 3 -21 -2 -28 -12 -10 -13 -15 -15 -20
-6 -6 9 -13 8 -27 -5 -10 -9 -25 -14 -33 -11 -8 3 -20 0 -26 -8 -6 -7 -19 -11
-29 -8 -11 3 -21 -2 -24 -11 -5 -12 -14 -15 -30 -11 -17 5 -26 2 -31 -10 -5
-13 -10 -15 -19 -6 -10 8 -19 7 -33 -4 -10 -7 -28 -12 -40 -9 -12 3 -26 -1
-34 -10 -9 -12 -16 -13 -25 -6 -9 8 -17 6 -28 -4 -8 -9 -23 -12 -36 -9 -11 3
-28 0 -36 -7 -8 -7 -22 -10 -31 -6 -8 3 -25 1 -37 -6 -12 -6 -33 -12 -47 -14
-14 -1 -43 -5 -65 -8 -22 -3 -71 -8 -110 -11 -38 -3 -87 -7 -108 -10 -20 -2
-56 -6 -80 -9 -23 -3 -75 -6 -115 -7 -40 -1 -75 -5 -78 -10 -2 -5 -18 -6 -33
-3 -16 4 -37 2 -47 -4 -12 -7 -23 -6 -36 1 -13 9 -23 9 -36 0 -10 -6 -30 -9
-45 -6 -15 3 -41 0 -58 -7 -25 -11 -32 -11 -39 0 -11 18 -49 6 -83 -26 -35
-32 -49 -23 -17 11 13 14 18 25 12 25 -13 0 -53 -20 -62 -31 -9 -11 -52 -31
-56 -26 -3 2 2 10 11 17 16 14 20 40 6 40 -5 0 -22 -11 -38 -24 -15 -12 -39
-29 -53 -36 l-24 -13 18 27 c29 45 13 50 -36 13 -47 -36 -65 -39 -48 -7 20 37
-23 41 -52 5 -11 -14 -26 -25 -34 -25 -10 0 -13 7 -8 25 9 35 -20 33 -51 -2
-31 -36 -31 -43 1 -43 14 0 23 4 19 10 -3 6 -1 10 4 10 6 0 11 -4 11 -9 0 -6
17 -12 38 -14 20 -2 -33 -4 -118 -5 -217 -3 -723 34 -892 64 -35 6 -36 5 -31
-17 9 -35 51 -87 76 -95 12 -4 24 -9 27 -13 16 -19 157 -71 195 -71 11 0 25
-4 30 -9 6 -5 39 -14 75 -20 36 -7 76 -14 90 -17 92 -16 325 -32 430 -29 449
14 1060 111 1485 236 152 45 556 190 580 208 5 5 55 25 110 46 55 21 114 43
130 50 28 12 63 24 155 53 153 49 569 142 925 207 184 33 634 140 770 182 146
46 295 129 279 155 -4 6 -1 16 7 22 18 14 43 46 36 46 -2 0 -10 -7 -17 -15z"/>
</g>
</svg>
